<?xml version="1.0" encoding="UTF-8" standalone="no"?>
<!-- Created with Inkscape (http://www.inkscape.org/) -->

<svg
   width="14"
   height="12"
   viewBox="0 0 3.7041667 3.1749999"
   version="1.1"
   id="svg1"
   xmlns="http://www.w3.org/2000/svg"
   xmlns:svg="http://www.w3.org/2000/svg">
  <defs
     id="defs1" />
  <g
     id="layer1">
    <path
       id="rect1"
       style="stroke-width:0.264583"
       d="M 1.8520832,2.9104166 H 2.1166665 V 3.1749999 H 1.8520832 Z" />
    <path
       id="rect1-2"
       style="stroke-width:0.264583"
       d="M 1.5875,2.9104166 H 1.8520833 V 3.1749999 H 1.5875 Z" />
    <path
       id="rect1-7"
       style="stroke-width:0.264583"
       d="M 1.3229167,2.6458332 H 1.5875 V 2.9104165 H 1.3229167 Z" />
    <path
       id="rect1-6"
       style="stroke-width:0.264583"
       d="M 1.0583333,2.3812499 H 1.3229166 V 2.6458332 H 1.0583333 Z" />
    <path
       id="rect1-61"
       style="stroke-width:0.264583"
       d="M 0.79375,2.1166666 H 1.0583333 V 2.3812499 H 0.79375 Z" />
    <path
       id="rect1-20"
       style="stroke-width:0.264583"
       d="M 0.5291667,1.8520832 H 0.79375 V 2.1166665 H 0.5291667 Z" />
    <path
       id="rect1-5"
       style="stroke-width:0.264583"
       d="M 0.2645833,1.5874999 H 0.5291666 V 1.8520832 H 0.2645833 Z" />
    <path
       id="rect1-8"
       style="stroke-width:0.264583"
       d="M 0,1.3229166 H 0.2645833 V 1.5874999 H 0 Z" />
    <path
       id="rect1-612"
       style="stroke-width:0.264583"
       d="M 2.1166667,2.6458332 H 2.38125 V 2.9104165 H 2.1166667 Z" />
    <path
       id="rect1-9"
       style="stroke-width:0.264583"
       d="M 2.38125,2.3812499 H 2.6458333 V 2.6458332 H 2.38125 Z" />
    <path
       id="rect1-4"
       style="stroke-width:0.264583"
       d="M 2.6458333,2.1166666 H 2.9104166 V 2.3812499 H 2.6458333 Z" />
    <path
       id="rect1-610"
       style="stroke-width:0.264583"
       d="M 2.9104167,1.8520832 H 3.175 V 2.1166665 H 2.9104167 Z" />
    <path
       id="rect1-0"
       style="stroke-width:0.264583"
       d="M 3.175,1.5874999 H 3.4395833 V 1.8520832 H 3.175 Z" />
    <path
       id="rect1-54"
       style="stroke-width:0.264583"
       d="M 3.4395833,1.3229166 H 3.7041666 V 1.5874999 H 3.4395833 Z" />
    <path
       id="rect1-69"
       style="stroke-width:0.264583"
       d="M 3.4395833,1.0583332 H 3.7041666 V 1.3229165 H 3.4395833 Z" />
    <path
       id="rect1-52"
       style="stroke-width:0.264583"
       d="M 3.4395833,0.7937499 H 3.7041666 V 1.0583332 H 3.4395833 Z" />
    <path
       id="rect1-44"
       style="stroke-width:0.264583"
       d="M 3.4395833,0.5291666 H 3.7041666 V 0.7937499 H 3.4395833 Z" />
    <path
       id="rect1-86"
       style="stroke-width:0.264583"
       d="M 3.175,0.2645832 H 3.4395833 V 0.5291665 H 3.175 Z" />
    <path
       id="rect1-3"
       style="stroke-width:0.264583"
       d="M 2.9104167,-1e-7 H 3.175 V 0.2645832 H 2.9104167 Z" />
    <path
       id="rect1-206"
       style="stroke-width:0.264583"
       d="M 2.6458333,-1e-7 H 2.9104166 V 0.2645832 H 2.6458333 Z" />
    <path
       id="rect1-66"
       style="stroke-width:0.264583"
       d="M 2.38125,-1e-7 H 2.6458333 V 0.2645832 H 2.38125 Z" />
    <path
       id="rect1-04"
       style="stroke-width:0.264583"
       d="M 2.1166667,0.2645832 H 2.38125 V 0.5291665 H 2.1166667 Z" />
    <path
       id="rect1-72"
       style="stroke-width:0.264583"
       d="M 1.8520833,0.5291666 H 2.1166666 V 0.7937499 H 1.8520833 Z" />
    <path
       id="rect1-6106"
       style="stroke-width:0.264583"
       d="M 1.5875,0.5291666 H 1.8520833 V 0.7937499 H 1.5875 Z" />
    <path
       id="rect1-49"
       style="stroke-width:0.264583"
       d="M 1.3229167,0.2645832 H 1.5875 V 0.5291665 H 1.3229167 Z" />
    <path
       id="rect1-77"
       style="stroke-width:0.264583"
       d="M 1.0583333,-1e-7 H 1.3229166 V 0.2645832 H 1.0583333 Z" />
    <path
       id="rect1-97"
       style="stroke-width:0.264583"
       d="M 0.79375,-1e-7 H 1.0583333 V 0.2645832 H 0.79375 Z" />
    <path
       id="rect1-36"
       style="stroke-width:0.264583"
       d="M 0.5291667,-1e-7 H 0.79375 V 0.2645832 H 0.5291667 Z" />
    <path
       id="rect1-94"
       style="stroke-width:0.264583"
       d="M 0.2645833,0.2645832 H 0.5291666 V 0.5291665 H 0.2645833 Z" />
    <path
       id="rect1-93"
       style="stroke-width:0.264583"
       d="M 0,0.5291666 H 0.2645833 V 0.7937499 H 0 Z" />
    <path
       id="rect1-85"
       style="stroke-width:0.264583"
       d="M 0,0.7937499 H 0.2645833 V 1.0583332 H 0 Z" />
    <path
       id="rect1-38"
       style="stroke-width:0.264583"
       d="M 0,1.0583332 H 0.2645833 V 1.3229165 H 0 Z" />
    <path
       id="rect2"
       style="fill:#ff2a2a;fill-opacity:1;stroke-width:0.264583"
       d="M 0.52916664,0.26458332 H 0.79374996 V 0.52916664 H 0.52916664 Z" />
    <path
       id="rect2-4"
       style="fill:#ff2a2a;fill-opacity:1;stroke-width:0.264583"
       d="M 0.79375,0.26458332 H 1.0583333 V 0.52916664 H 0.79375 Z" />
    <path
       id="rect2-3"
       style="fill:#ff0000;stroke-width:0.264583"
       d="M 1.0583333,0.26458332 H 1.3229166 V 0.52916664 H 1.0583333 Z" />
    <path
       id="rect2-44"
       style="fill:#ff0000;stroke-width:0.264583"
       d="M 1.0583333,0.52916667 H 1.3229166 V 0.79374999 H 1.0583333 Z" />
    <path
       id="rect2-1"
       style="fill:#ff2a2a;fill-opacity:1;stroke-width:0.264583"
       d="M 0.26458333,0.52916667 H 0.52916665 V 0.79374999 H 0.26458333 Z" />
    <path
       id="rect2-6"
       style="fill:#ff2a2a;fill-opacity:1;stroke-width:0.264583"
       d="M 0.26458333,0.79375 H 0.52916665 V 1.0583333 H 0.26458333 Z" />
    <path
       id="rect2-8"
       style="fill:#ff0000;stroke-width:0.264583"
       d="M 0.26458333,1.0583333 H 0.52916665 V 1.3229166 H 0.26458333 Z" />
    <path
       id="rect2-18"
       style="fill:#ff0000;stroke-width:0.264583"
       d="M 0.52916667,1.0583333 H 0.79374999 V 1.3229166 H 0.52916667 Z" />
    <path
       id="rect2-5"
       style="fill:#ff0000;stroke-width:0.264583"
       d="M 0.79375,0.79375 H 1.0583333 V 1.0583333 H 0.79375 Z" />
    <path
       id="rect2-31"
       style="fill:#ff0000;stroke-width:0.264583"
       d="M 1.0583333,0.79375 H 1.3229166 V 1.0583333 H 1.0583333 Z" />
    <path
       id="rect2-43"
       style="fill:#ff0000;stroke-width:0.264583"
       d="M 1.3229167,0.52916667 H 1.5875 V 0.79374999 H 1.3229167 Z" />
    <path
       id="rect2-60"
       style="fill:#ff0000;stroke-width:0.264583"
       d="M 1.3229167,0.79375 H 1.5875 V 1.0583333 H 1.3229167 Z" />
    <path
       id="rect2-89"
       style="fill:#ff0000;stroke-width:0.264583"
       d="M 1.5875,0.79375 H 1.8520834 V 1.0583333 H 1.5875 Z" />
    <path
       id="rect2-430"
       style="fill:#ff0000;stroke-width:0.264583"
       d="M 1.8520833,0.79375 H 2.1166667 V 1.0583333 H 1.8520833 Z" />
    <path
       id="rect2-2"
       style="fill:#ff0000;stroke-width:0.264583"
       d="M 2.1166666,0.79375 H 2.38125 V 1.0583333 H 2.1166666 Z" />
    <path
       id="rect2-59"
       style="fill:#ff0000;stroke-width:0.264583"
       d="M 2.1166666,0.52916667 H 2.38125 V 0.79374999 H 2.1166666 Z" />
    <path
       id="rect2-22"
       style="fill:#ff0000;stroke-width:0.264583"
       d="M 2.38125,0.52916667 H 2.6458334 V 0.79374999 H 2.38125 Z" />
    <path
       id="rect2-54"
       style="fill:#ff0000;stroke-width:0.264583"
       d="M 2.38125,0.26458332 H 2.6458334 V 0.52916664 H 2.38125 Z" />
    <path
       id="rect2-893"
       style="fill:#ff0000;stroke-width:0.264583"
       d="M 2.6458333,0.26458332 H 2.9104167 V 0.52916664 H 2.6458333 Z" />
    <path
       id="rect2-21"
       style="fill:#e10000;fill-opacity:1;stroke-width:0.264583"
       d="M 2.9104166,0.26458332 H 3.175 V 0.52916664 H 2.9104166 Z" />
    <path
       id="rect2-10"
       style="fill:#ff0000;stroke-width:0.264583"
       d="M 2.9104166,0.52916667 H 3.175 V 0.79374999 H 2.9104166 Z" />
    <path
       id="rect2-64"
       style="fill:#ff0000;stroke-width:0.264583"
       d="M 2.6458333,0.52916667 H 2.9104167 V 0.79374999 H 2.6458333 Z" />
    <path
       id="rect2-86"
       style="fill:#e10000;fill-opacity:1;stroke-width:0.264583"
       d="M 3.175,0.52916667 H 3.4395834 V 0.79374999 H 3.175 Z" />
    <path
       id="rect2-7"
       style="fill:#e10000;fill-opacity:1;stroke-width:0.264583"
       d="M 3.175,0.79375 H 3.4395834 V 1.0583333 H 3.175 Z" />
    <path
       id="rect2-62"
       style="fill:#ff0000;stroke-width:0.264583"
       d="M 2.9104166,0.79375 H 3.175 V 1.0583333 H 2.9104166 Z" />
    <path
       id="rect2-81"
       style="fill:#ff0000;stroke-width:0.264583"
       d="M 2.6458333,0.79375 H 2.9104167 V 1.0583333 H 2.6458333 Z" />
    <path
       id="rect2-0"
       style="fill:#ff0000;stroke-width:0.264583"
       d="M 2.38125,0.79375 H 2.6458334 V 1.0583333 H 2.38125 Z" />
    <path
       id="rect2-39"
       style="fill:#ff0000;stroke-width:0.264583"
       d="M 2.38125,1.0583333 H 2.6458334 V 1.3229166 H 2.38125 Z" />
    <path
       id="rect2-9"
       style="fill:#ff0000;stroke-width:0.264583"
       d="M 2.6458333,1.0583333 H 2.9104167 V 1.3229166 H 2.6458333 Z" />
    <path
       id="rect2-05"
       style="fill:#ff0000;stroke-width:0.264583"
       d="M 2.9104166,1.0583333 H 3.175 V 1.3229166 H 2.9104166 Z" />
    <path
       id="rect2-00"
       style="fill:#e10000;fill-opacity:1;stroke-width:0.264583"
       d="M 3.175,1.0583333 H 3.4395834 V 1.3229166 H 3.175 Z" />
    <path
       id="rect2-67"
       style="fill:#e10000;fill-opacity:1;stroke-width:0.264583"
       d="M 3.175,1.3229166 H 3.4395834 V 1.5874999 H 3.175 Z" />
    <path
       id="rect2-87"
       style="fill:#ff0000;stroke-width:0.264583"
       d="M 2.9104166,1.3229166 H 3.175 V 1.5874999 H 2.9104166 Z" />
    <path
       id="rect2-99"
       style="fill:#ff0000;stroke-width:0.264583"
       d="M 2.6458333,1.3229166 H 2.9104167 V 1.5874999 H 2.6458333 Z" />
    <path
       id="rect2-76"
       style="fill:#ff0000;stroke-width:0.264583"
       d="M 2.38125,1.3229166 H 2.6458334 V 1.5874999 H 2.38125 Z" />
    <path
       id="rect2-15"
       style="fill:#ff0000;stroke-width:0.264583"
       d="M 2.1166666,1.3229166 H 2.38125 V 1.5874999 H 2.1166666 Z" />
    <path
       id="rect2-49"
       style="fill:#ff0000;stroke-width:0.264583"
       d="M 2.1166666,1.0583333 H 2.38125 V 1.3229166 H 2.1166666 Z" />
    <path
       id="rect2-58"
       style="fill:#ff0000;stroke-width:0.264583"
       d="M 1.8520833,1.0583333 H 2.1166667 V 1.3229166 H 1.8520833 Z" />
    <path
       id="rect2-80"
       style="fill:#ff0000;stroke-width:0.264583"
       d="M 1.5875,1.0583333 H 1.8520834 V 1.3229166 H 1.5875 Z" />
    <path
       id="rect2-61"
       style="fill:#ff0000;stroke-width:0.264583"
       d="M 1.3229167,1.0583333 H 1.5875 V 1.3229166 H 1.3229167 Z" />
    <path
       id="rect2-220"
       style="fill:#ff0000;stroke-width:0.264583"
       d="M 1.0583333,1.0583333 H 1.3229166 V 1.3229166 H 1.0583333 Z" />
    <path
       id="rect2-90"
       style="fill:#ff0000;stroke-width:0.264583"
       d="M 0.79375,1.0583333 H 1.0583333 V 1.3229166 H 0.79375 Z" />
    <path
       id="rect2-804"
       style="fill:#e10000;fill-opacity:1;stroke-width:0.264583"
       d="M 0.26458333,1.3229166 H 0.52916665 V 1.5874999 H 0.26458333 Z" />
    <path
       id="rect2-96"
       style="fill:#ff0000;stroke-width:0.264583"
       d="M 0.52916667,1.3229166 H 0.79374999 V 1.5874999 H 0.52916667 Z" />
    <path
       id="rect2-499"
       style="fill:#ff0000;stroke-width:0.264583"
       d="M 0.79375,1.3229166 H 1.0583333 V 1.5874999 H 0.79375 Z" />
    <path
       id="rect2-50"
       style="fill:#ff0000;stroke-width:0.264583"
       d="M 1.0583333,1.3229166 H 1.3229166 V 1.5874999 H 1.0583333 Z" />
    <path
       id="rect2-35"
       style="fill:#ff0000;stroke-width:0.264583"
       d="M 1.3229167,1.3229166 H 1.5875 V 1.5874999 H 1.3229167 Z" />
    <path
       id="rect2-314"
       style="fill:#ff0000;stroke-width:0.264583"
       d="M 1.5875,1.3229166 H 1.8520834 V 1.5874999 H 1.5875 Z" />
    <path
       id="rect2-226"
       style="fill:#ff0000;stroke-width:0.264583"
       d="M 1.8520833,1.3229166 H 2.1166667 V 1.5874999 H 1.8520833 Z" />
    <path
       id="rect2-88"
       style="fill:#a60000;fill-opacity:1;stroke-width:0.264583"
       d="M 0.52916667,1.5875 H 0.79374999 V 1.8520833 H 0.52916667 Z" />
    <path
       id="rect2-886"
       style="fill:#ff0000;stroke-width:0.264583"
       d="M 0.79375,1.5875 H 1.0583333 V 1.8520833 H 0.79375 Z" />
    <path
       id="rect2-33"
       style="fill:#ff0000;stroke-width:0.264583"
       d="M 1.0583333,1.5875 H 1.3229166 V 1.8520833 H 1.0583333 Z" />
    <path
       id="rect2-47"
       style="fill:#ff0000;stroke-width:0.264583"
       d="M 1.3229167,1.5875 H 1.5875 V 1.8520833 H 1.3229167 Z" />
    <path
       id="rect2-06"
       style="fill:#ff0000;stroke-width:0.264583"
       d="M 1.5875,1.5875 H 1.8520834 V 1.8520833 H 1.5875 Z" />
    <path
       id="rect2-03"
       style="fill:#ff0000;stroke-width:0.264583"
       d="M 1.8520833,1.5875 H 2.1166667 V 1.8520833 H 1.8520833 Z" />
    <path
       id="rect2-32"
       style="fill:#ff0000;stroke-width:0.264583"
       d="M 2.1166666,1.5875 H 2.38125 V 1.8520833 H 2.1166666 Z" />
    <path
       id="rect2-65"
       style="fill:#ff0000;stroke-width:0.264583"
       d="M 2.38125,1.5875 H 2.6458334 V 1.8520833 H 2.38125 Z" />
    <path
       id="rect2-604"
       style="fill:#ff0000;stroke-width:0.264583"
       d="M 2.6458333,1.5875 H 2.9104167 V 1.8520833 H 2.6458333 Z" />
    <path
       id="rect2-870"
       style="fill:#a60000;fill-opacity:1;stroke-width:0.264583"
       d="M 2.9104166,1.5875 H 3.175 V 1.8520833 H 2.9104166 Z" />
    <path
       id="rect2-479"
       style="fill:#a60000;fill-opacity:1;stroke-width:0.264583"
       d="M 2.6458333,1.8520833 H 2.9104167 V 2.1166666 H 2.6458333 Z" />
    <path
       id="rect2-83"
       style="fill:#ff0000;stroke-width:0.264583"
       d="M 2.38125,1.8520833 H 2.6458334 V 2.1166666 H 2.38125 Z" />
    <path
       id="rect2-891"
       style="fill:#ff0000;stroke-width:0.264583"
       d="M 2.1166666,1.8520833 H 2.38125 V 2.1166666 H 2.1166666 Z" />
    <path
       id="rect2-25"
       style="fill:#ff0000;stroke-width:0.264583"
       d="M 1.8520833,1.8520833 H 2.1166667 V 2.1166666 H 1.8520833 Z" />
    <path
       id="rect2-94"
       style="fill:#ff0000;stroke-width:0.264583"
       d="M 1.5875,1.8520833 H 1.8520834 V 2.1166666 H 1.5875 Z" />
    <path
       id="rect2-57"
       style="fill:#ff0000;stroke-width:0.264583"
       d="M 1.3229167,1.8520833 H 1.5875 V 2.1166666 H 1.3229167 Z" />
    <path
       id="rect2-997"
       style="fill:#ff0000;stroke-width:0.264583"
       d="M 1.0583333,1.8520833 H 1.3229166 V 2.1166666 H 1.0583333 Z" />
    <path
       id="rect2-34"
       style="fill:#a60000;fill-opacity:1;stroke-width:0.264583"
       d="M 0.79375,1.8520833 H 1.0583333 V 2.1166666 H 0.79375 Z" />
    <path
       id="rect2-01"
       style="fill:#a60000;fill-opacity:1;stroke-width:0.264583"
       d="M 1.0583333,2.1166666 H 1.3229166 V 2.3812499 H 1.0583333 Z" />
    <path
       id="rect2-12"
       style="fill:#ff0000;stroke-width:0.264583"
       d="M 1.3229167,2.1166666 H 1.5875 V 2.3812499 H 1.3229167 Z" />
    <path
       id="rect2-11"
       style="fill:#ff0000;stroke-width:0.264583"
       d="M 1.5875,2.1166666 H 1.8520834 V 2.3812499 H 1.5875 Z" />
    <path
       id="rect2-677"
       style="fill:#ff0000;stroke-width:0.264583"
       d="M 1.8520833,2.1166666 H 2.1166667 V 2.3812499 H 1.8520833 Z" />
    <path
       id="rect2-474"
       style="fill:#ff0000;stroke-width:0.264583"
       d="M 2.1166666,2.1166666 H 2.38125 V 2.3812499 H 2.1166666 Z" />
    <path
       id="rect2-26"
       style="fill:#a60000;fill-opacity:1;stroke-width:0.264583"
       d="M 2.38125,2.1166666 H 2.6458334 V 2.3812499 H 2.38125 Z" />
    <path
       id="rect2-46"
       style="fill:#a60000;fill-opacity:1;stroke-width:0.264583"
       d="M 2.1166666,2.38125 H 2.38125 V 2.6458333 H 2.1166666 Z" />
    <path
       id="rect2-607"
       style="fill:#ff0000;stroke-width:0.264583"
       d="M 1.8520833,2.38125 H 2.1166667 V 2.6458333 H 1.8520833 Z" />
    <path
       id="rect2-13"
       style="fill:#ff0000;stroke-width:0.264583"
       d="M 1.5875,2.38125 H 1.8520834 V 2.6458333 H 1.5875 Z" />
    <path
       id="rect2-645"
       style="fill:#a60000;fill-opacity:1;stroke-width:0.264583"
       d="M 1.3229167,2.38125 H 1.5875 V 2.6458333 H 1.3229167 Z" />
    <path
       id="rect2-909"
       style="fill:#a60000;fill-opacity:1;stroke-width:0.264583"
       d="M 1.5875,2.6458333 H 1.8520834 V 2.9104166 H 1.5875 Z" />
    <path
       id="rect2-103"
       style="fill:#a60000;fill-opacity:1;stroke-width:0.264583"
       d="M 1.8520833,2.6458333 H 2.1166667 V 2.9104166 H 1.8520833 Z" />
    <path
       id="rect3"
       style="fill:#ffffff;stroke-width:0.264583"
       d="M 0.52916664,0.52916664 H 0.79374996 V 0.79374996 H 0.52916664 Z" />
    <path
       id="rect3-7"
       style="fill:#ffffff;stroke-width:0.264583"
       d="M 0.79375,0.52916664 H 1.0583333 V 0.79374996 H 0.79375 Z" />
    <path
       id="rect3-8"
       style="fill:#ffffff;stroke-width:0.264583"
       d="M 0.52916667,0.79375 H 0.79374999 V 1.0583333 H 0.52916667 Z" />
  </g>
</svg>
